# xmcd
#
# Track frame offsets:
#	150
#	17398
#	34983
#	60496
#	77325
#	97131
#	114379
#	131964
#	157477
#	174306
#	205362
#
# Disc length: 2754 seconds
#
# Revision: 0
# Processed by: cddbd v1.5.1PL2 Copyright (c) Steve Scherf et al.
# Submitted via: audiograbber 1.83.01
#
DISCID=920ac00b
DTITLE=Dixie Chicks, The - PR1502
DYEAR=1900
DGENRE=Karaoke
TTITLE0=Long Time Gone
TTITLE1=Landslide
TTITLE2=Travelin' Soldier
TTITLE3=Tortured Tangled Hearts
TTITLE4=Goodbye Earl
TTITLE5=Long Time Gone (Vocal)
TTITLE6=Landslide (Vocal)
TTITLE7=Travelin' Soldier (Vocal)
TTITLE8=Tortured Tangled Hearts (Vocal)
TTITLE9=Goodbye Earl (Vocal)
TTITLE10=Data Track
EXTD=
EXTT0=
EXTT1=
EXTT2=
EXTT3=
EXTT4=
EXTT5=
EXTT6=
EXTT7=
EXTT8=
EXTT9=
EXTT10=
PLAYORDER=
